<svg width="1440" height="640" viewBox="0 0 1440 640" fill="none" xmlns="http://www.w3.org/2000/svg">
<rect opacity="0.04" x="67" y="47" width="43" height="546" rx="21.5" fill="#047672"/>
<rect opacity="0.04" x="134" y="188" width="43" height="264" rx="21.5" fill="#047672"/>
<rect opacity="0.04" x="201" width="43" height="640" rx="21.5" fill="#047672"/>
<rect opacity="0.04" x="268" y="42" width="43" height="535" rx="21.5" fill="#047672"/>
<rect opacity="0.04" x="335" y="35" width="43" height="569" rx="21.5" fill="#047672"/>
<rect opacity="0.04" x="402" y="247" width="43" height="146" rx="21.5" fill="#047672"/>
<rect opacity="0.04" x="1340" y="247" width="43" height="146" rx="21.5" fill="#047672"/>
<rect opacity="0.04" x="871" y="247" width="43" height="146" rx="21.5" fill="#047672"/>
<rect opacity="0.04" x="469" y="223" width="43" height="194" rx="21.5" fill="#047672"/>
<rect opacity="0.04" x="938" y="223" width="43" height="194" rx="21.5" fill="#047672"/>
<rect opacity="0.04" x="1407" y="223" width="43" height="194" rx="21.5" fill="#047672"/>
<rect opacity="0.04" x="536" y="47" width="43" height="546" rx="21.5" fill="#047672"/>
<rect opacity="0.04" x="1005" y="42" width="43" height="546" rx="21.5" fill="#047672"/>
<rect opacity="0.04" x="603" y="188" width="43" height="264" rx="21.5" fill="#047672"/>
<rect opacity="0.04" x="1072" y="188" width="43" height="264" rx="21.5" fill="#047672"/>
<rect opacity="0.04" x="670" width="43" height="640" rx="21.5" fill="#047672"/>
<rect opacity="0.04" x="1139" width="43" height="640" rx="21.5" fill="#047672"/>
<rect opacity="0.04" x="737" y="42" width="43" height="535" rx="21.5" fill="#047672"/>
<rect opacity="0.04" x="1206" y="42" width="43" height="535" rx="21.5" fill="#047672"/>
<rect opacity="0.04" x="804" y="35" width="43" height="569" rx="21.5" fill="#047672"/>
<rect opacity="0.04" x="1273" y="35" width="43" height="569" rx="21.5" fill="#047672"/>
<rect opacity="0.04" y="223" width="43" height="194" rx="21.5" fill="#047672"/>
</svg>
