<svg width="216" height="52" viewBox="0 0 216 52" fill="none" xmlns="http://www.w3.org/2000/svg">
<path d="M19.5871 2.03683C21.7076 2.03683 23.7165 2.23215 25.6138 2.62276C27.5112 3.01339 29.1759 3.68303 30.6082 4.63169C32.0405 5.56176 33.1752 6.82663 34.0122 8.42633C34.8679 10.0074 35.2958 11.9978 35.2958 14.3973C35.2772 15.997 35.1191 17.4293 34.8214 18.6941C34.5424 19.9591 34.1332 21.103 33.5938 22.1261C33.0729 23.1306 32.4312 24.042 31.6685 24.8604C30.9245 25.6603 30.0688 26.4137 29.1015 27.1206C27.2415 28.4598 25.2046 29.4736 22.9911 30.1618C20.7775 30.8314 18.5546 31.1663 16.3225 31.1663C15.9505 31.1663 15.5785 31.157 15.2065 31.1384C14.8531 31.1198 14.4904 31.0918 14.1184 31.0547L13.1975 41.2388L12.7232 42.1038C12.686 42.1781 12.3698 42.327 11.7746 42.5503C11.1793 42.7734 10.4353 43.0338 9.54241 43.3314L7.7846 43.9174C7.22656 44.122 6.73363 44.308 6.3058 44.4754C5.87797 44.6428 5.47806 44.7917 5.10603 44.9218C4.734 45.0521 4.37129 45.1451 4.01786 45.2008C3.66443 45.2753 3.29241 45.3126 2.90179 45.3126C2.64137 45.3126 2.43676 45.2474 2.28794 45.1171C2.13914 44.987 2.06473 44.7358 2.06473 44.3638L2.37166 39.5927C2.42746 38.644 2.49256 37.6953 2.56696 36.7467C2.65997 35.7794 2.74367 34.6818 2.81809 33.4543L3.34821 26.7857C3.45981 25.4278 3.56213 24.07 3.65513 22.712C3.74814 21.3541 3.84114 20.0614 3.93416 18.8337C4.02716 17.606 4.11086 16.462 4.18527 15.4018C4.25967 14.3228 4.32477 13.3836 4.38059 12.5837C3.37611 12.8069 2.56696 12.9743 1.95313 13.0859C1.35789 13.1789 0.902157 13.2254 0.585943 13.2254C0.195313 13.2254 0 13.058 0 12.7232C0.260417 11.8118 0.502229 10.9189 0.725443 10.0446C0.930057 9.30059 1.13467 8.53795 1.33929 7.75669C1.5625 6.95685 1.74851 6.28721 1.89733 5.74776C1.99033 5.41295 2.09263 5.16183 2.20424 4.99442C2.33444 4.80841 2.49256 4.66891 2.67857 4.57589C2.88319 4.46429 3.1343 4.37128 3.43191 4.29688C3.74814 4.20386 4.12947 4.08296 4.5759 3.93415C4.92931 3.82255 5.42224 3.70163 6.05469 3.57143C6.70573 3.42262 7.44047 3.28311 8.25893 3.15291C9.09599 3.00409 9.99814 2.86458 10.9654 2.73438C11.9327 2.60416 12.9092 2.49256 13.8951 2.39955C14.8995 2.28795 15.8854 2.20425 16.8526 2.14843C17.8199 2.07403 18.7314 2.03683 19.5871 2.03683ZM197.605 0.530134C197.811 0.530134 197.913 0.623134 197.913 0.809148L194.285 40.6528V41.1273C194.285 41.2947 194.221 41.4341 194.091 41.5457C193.96 41.6387 193.654 41.7504 193.17 41.8806L185.86 44.5591C185.655 44.6521 185.385 44.7451 185.05 44.8381C184.715 44.9498 184.39 45.0056 184.074 45.0056C183.814 45.0056 183.581 44.9404 183.377 44.8103C183.19 44.68 183.097 44.4568 183.097 44.1406V43.9733C183.245 42.0946 183.385 40.2623 183.515 38.4766C183.664 36.6723 183.814 34.8121 183.962 32.8961C184.13 30.9803 184.307 28.9527 184.492 26.8136C184.678 24.6744 184.882 22.3307 185.105 19.7824C185.33 17.234 185.505 14.7136 185.637 12.221C185.785 9.72842 185.943 7.17076 186.111 4.54799C186.148 3.93415 186.204 3.51562 186.278 3.29241C186.371 3.05059 186.585 2.89249 186.92 2.81808C188.65 2.50186 190.38 2.18563 192.11 1.86942C193.858 1.53459 195.607 1.09748 197.355 0.558034C197.411 0.539434 197.494 0.530134 197.605 0.530134ZM214.961 0.530134C215.165 0.530134 215.268 0.623134 215.268 0.809148L211.641 40.6528V41.1273C211.641 41.2947 211.575 41.4341 211.445 41.5457C211.315 41.6387 211.008 41.7504 210.524 41.8806L203.214 44.5591C203.01 44.6521 202.74 44.7451 202.405 44.8381C202.07 44.9498 201.745 45.0056 201.428 45.0056C201.168 45.0056 200.935 44.9404 200.731 44.8103C200.545 44.68 200.453 44.4568 200.453 44.1406V43.9733C200.601 42.0946 200.74 40.2623 200.871 38.4766C201.02 36.6723 201.168 34.8121 201.317 32.8961C201.484 30.9803 201.661 28.9527 201.847 26.8136C202.033 24.6744 202.238 22.3307 202.461 19.7824C202.684 17.234 202.861 14.7136 202.991 12.221C203.14 9.72842 203.298 7.17076 203.465 4.54799C203.503 3.93415 203.558 3.51562 203.633 3.29241C203.725 3.05059 203.94 2.89249 204.274 2.81808C206.004 2.50186 207.734 2.18563 209.464 1.86942C211.213 1.53459 212.961 1.09748 214.71 0.558034C214.765 0.539434 214.85 0.530134 214.961 0.530134ZM107.902 0C108.144 0 108.367 0.0558043 108.571 0.167411C108.795 0.279019 108.906 0.492931 108.906 0.809148C108.906 0.846349 108.897 0.930063 108.878 1.06026V1.28348L105.279 40.5691C105.279 40.6064 105.27 40.6528 105.251 40.7087V41.0436C105.27 41.0993 105.279 41.1551 105.279 41.211C105.279 41.3784 105.214 41.5178 105.084 41.6294C104.972 41.7224 104.665 41.8341 104.163 41.9643L96.6852 44.3917C96.4806 44.4661 96.2109 44.5591 95.8761 44.6707C95.5414 44.7824 95.2158 44.8381 94.8995 44.8381C94.6391 44.8381 94.4066 44.7731 94.2021 44.6428C94.0159 44.5127 93.9229 44.2708 93.9229 43.9174V43.1083C93.9416 42.9037 93.9509 42.7176 93.9509 42.5503C93.9695 42.3643 93.9881 42.1688 94.0066 41.9643C94.0439 41.7597 94.0811 41.49 94.1184 41.1551C92.7232 42.2713 91.2816 43.1641 89.7935 43.8337C88.3241 44.5033 86.7708 44.8381 85.1339 44.8381C83.3482 44.8381 81.7578 44.4103 80.3628 43.5547C78.9862 42.7176 77.8236 41.5923 76.8751 40.1786C75.9264 38.7463 75.2009 37.1187 74.6986 35.2957C74.2151 33.4543 73.9732 31.5383 73.9732 29.548C73.9732 26.9624 74.3918 24.6094 75.2288 22.4888C76.0845 20.3497 77.2378 18.5268 78.6886 17.0201C80.1395 15.4948 81.8322 14.3228 83.7668 13.5044C85.7012 12.6674 87.7566 12.2489 89.9331 12.2489C91.1049 12.2489 92.2209 12.5558 93.2812 13.1696C94.3601 13.7834 95.3739 14.574 96.3225 15.5413C96.3784 14.6298 96.4435 13.644 96.5179 12.5837C96.5922 11.5048 96.6666 10.4167 96.7411 9.31919C96.8155 8.20312 96.8899 7.10565 96.9642 6.02679C97.0386 4.94792 97.1038 3.96205 97.1596 3.06919C97.1596 2.90179 97.2154 2.77158 97.3271 2.67858C97.4572 2.56696 97.7735 2.44606 98.2757 2.31585L106.116 0.446429C106.321 0.409227 106.59 0.325521 106.925 0.195313C107.26 0.0651043 107.586 0 107.902 0ZM125.452 0C125.694 0 125.917 0.0558043 126.122 0.167411C126.345 0.279019 126.456 0.492931 126.456 0.809148C126.456 0.846349 126.447 0.883563 126.428 0.920763V1.03236C126.41 1.12538 126.364 1.53459 126.289 2.26005C126.215 2.98549 126.131 3.86905 126.038 4.91072C125.945 5.93378 125.843 7.04055 125.731 8.23102C125.619 9.40291 125.517 10.5097 125.424 11.5513C125.331 12.5744 125.247 13.4487 125.173 14.1741C125.099 14.8996 125.052 15.3088 125.034 15.4018C126.391 14.509 127.796 13.7648 129.247 13.1696C130.697 12.5558 132.148 12.2489 133.599 12.2489C135.515 12.2489 137.171 12.6488 138.566 13.4487C139.961 14.2298 141.114 15.2808 142.026 16.6016C142.937 17.9037 143.607 19.4103 144.034 21.1217C144.481 22.833 144.704 24.6001 144.704 26.423C144.704 27.8924 144.565 29.3713 144.285 30.8594C144.025 32.3288 143.635 33.7426 143.114 35.1004C142.612 36.4583 141.97 37.7326 141.189 38.923C140.426 40.1134 139.542 41.1458 138.538 42.0201C137.552 42.8943 136.445 43.5826 135.218 44.0848C133.99 44.587 132.66 44.8381 131.228 44.8381C129.498 44.8381 127.917 44.4568 126.484 43.6941C125.052 42.9316 123.722 41.9457 122.494 40.7366C122.457 41.183 122.429 41.5364 122.411 41.7968C122.392 42.0573 122.327 42.2618 122.215 42.4107C122.122 42.541 121.974 42.6526 121.769 42.7456C121.564 42.82 121.257 42.9037 120.848 42.9967C120.644 43.0524 120.281 43.1454 119.76 43.2757C119.258 43.3873 118.644 43.5174 117.919 43.6663C117.212 43.8337 116.421 44.0104 115.547 44.1964C114.691 44.3824 113.817 44.5684 112.924 44.7544C112.664 44.8103 112.459 44.8381 112.31 44.8381C111.715 44.8381 111.417 44.4847 111.417 43.7778V43.4988C111.436 43.4058 111.455 43.3036 111.473 43.192L114.71 3.71093V3.54353C114.728 3.48772 114.738 3.44122 114.738 3.40402C114.738 3.32962 114.728 3.26451 114.71 3.20871V3.06919C114.71 2.90179 114.766 2.77158 114.877 2.67858C115.007 2.56696 115.324 2.44606 115.826 2.31585L123.666 0.446429C123.871 0.409227 124.141 0.325521 124.476 0.195313C124.81 0.0651043 125.136 0 125.452 0ZM179.721 11.7745L176.847 37.779C176.828 37.8534 176.82 37.9278 176.82 38.0023V38.1697C176.82 38.6347 176.894 39.0253 177.042 39.3416C177.191 39.6391 177.35 39.8903 177.517 40.0948C177.702 40.2808 177.87 40.439 178.02 40.5691C178.168 40.6808 178.243 40.7831 178.243 40.8761C178.243 41.1366 177.962 41.3784 177.405 41.6016L169.9 44.8103C169.881 44.8288 169.815 44.8381 169.704 44.8381C169.555 44.8381 169.407 44.708 169.258 44.4476C169.11 44.1871 168.96 43.8523 168.811 43.4431C168.681 43.0524 168.551 42.634 168.421 42.1876C168.31 41.7224 168.207 41.2947 168.114 40.904C166.943 42.2618 165.677 43.2571 164.32 43.8896C162.961 44.522 161.613 44.8381 160.274 44.8381C158.711 44.8381 157.185 44.494 155.698 43.8058C154.21 43.1176 152.888 42.141 151.735 40.8761C150.583 39.5927 149.652 38.0487 148.945 36.2444C148.257 34.4401 147.913 32.4126 147.913 30.1618C147.913 27.5018 148.294 25.0744 149.057 22.8794C149.838 20.6846 150.89 18.7966 152.21 17.2154C153.531 15.6343 155.065 14.416 156.814 13.5603C158.581 12.686 160.45 12.2489 162.423 12.2489C163.817 12.2489 165.138 12.5372 166.384 13.1138C167.63 13.6718 168.811 14.3973 169.927 15.2901C170.04 14.7321 170.104 14.2857 170.122 13.9508C170.141 13.6161 170.178 13.3556 170.234 13.1696C170.308 12.9836 170.44 12.8627 170.625 12.8069C170.811 12.7325 171.118 12.6767 171.545 12.6395C172.885 12.4535 174.215 12.2861 175.535 12.1373C176.875 11.9699 178.27 11.849 179.721 11.7745ZM130.084 19.6987C128.875 19.6987 127.768 20.0521 126.763 20.759C125.759 21.4657 124.913 22.368 124.224 23.4654L123.304 34.2913C123.49 34.6633 123.75 35.0447 124.085 35.4353C124.438 35.8073 124.838 36.1514 125.285 36.4676C125.75 36.7838 126.252 37.0443 126.791 37.2488C127.331 37.4348 127.889 37.5278 128.465 37.5278C129.265 37.5278 130.019 37.221 130.726 36.6071C131.432 35.9747 132.046 35.1377 132.567 34.096C133.106 33.0357 133.525 31.836 133.823 30.4967C134.12 29.1387 134.269 27.7344 134.269 26.2834C134.269 25.3906 134.185 24.5443 134.018 23.7444C133.869 22.9446 133.627 22.247 133.292 21.6518C132.958 21.0566 132.521 20.5823 131.981 20.2288C131.46 19.8754 130.828 19.6987 130.084 19.6987ZM91.2165 19.8381C90.0632 19.8381 89.0866 20.173 88.2868 20.8427C87.4869 21.4937 86.8452 22.3028 86.3616 23.2701C85.8779 24.2374 85.5245 25.2604 85.3014 26.3393C85.0968 27.3996 84.9944 28.3388 84.9944 29.1574C84.9944 30.1618 85.0502 31.157 85.1618 32.1428C85.2921 33.1287 85.4874 34.0216 85.7478 34.8214C86.0268 35.6213 86.3895 36.2723 86.8359 36.7746C87.2824 37.2581 87.8404 37.5 88.5101 37.5C90.1469 37.4441 91.4769 37.0721 92.4999 36.384C93.5231 35.6957 94.3415 34.8586 94.9554 33.8727L95.5414 27.5111C95.5971 26.916 95.6529 26.2928 95.7086 25.6417C95.7831 24.9907 95.8668 24.3117 95.9598 23.6048C95.5319 22.4888 94.9275 21.5867 94.1462 20.8984C93.3649 20.1916 92.3884 19.8381 91.2165 19.8381ZM164.32 19.587C163.315 19.587 162.468 19.9126 161.78 20.5636C161.111 21.2147 160.561 22.0146 160.134 22.9631C159.725 23.9118 159.427 24.9163 159.241 25.9766C159.074 27.0368 158.99 27.9761 158.99 28.7947C158.99 31.7336 159.371 33.8914 160.134 35.2678C160.915 36.6257 161.994 37.3047 163.371 37.3047C163.928 37.3047 164.551 37.1466 165.24 36.8304C165.928 36.5141 166.625 36.077 167.333 35.519L168.504 27.26C168.691 26.1998 168.811 25.2046 168.867 24.2746C168.941 23.3258 168.997 22.461 169.034 21.6797C168.737 21.4564 168.411 21.224 168.058 20.9821C167.723 20.7403 167.351 20.5171 166.943 20.3126C166.551 20.0893 166.133 19.9126 165.687 19.7824C165.258 19.6521 164.803 19.587 164.32 19.587ZM18.5826 10.7422C18.3408 10.7422 18.0618 10.7608 17.7455 10.798C17.4479 10.8166 17.1596 10.8631 16.8806 10.9375C16.6202 11.0119 16.3969 11.1049 16.2109 11.2165C16.0249 11.3095 15.9226 11.4397 15.9041 11.6071L15.8482 12.221C15.8296 12.4628 15.7924 12.8627 15.7366 13.4207C15.6808 13.9601 15.6156 14.5833 15.5414 15.2901C15.4855 15.997 15.4204 16.7411 15.3459 17.5223C15.2902 18.3036 15.2251 19.0476 15.1506 19.7544C15.0949 20.4613 15.0391 21.0844 14.9832 21.6238C14.9461 22.1633 14.9182 22.5447 14.8995 22.7678C14.8995 22.9724 14.9368 23.1584 15.0112 23.3258C15.0855 23.4747 15.2902 23.5491 15.6251 23.5491C16.1458 23.5491 16.7596 23.4376 17.4665 23.2143C18.1919 22.9724 18.9081 22.619 19.6149 22.154C20.3404 21.689 21.0101 21.1124 21.6239 20.4241C22.2378 19.7358 22.7028 18.9267 23.0189 17.9967C23.1492 17.6246 23.2515 17.1503 23.3259 16.5737C23.4189 15.997 23.4654 15.3181 23.4654 14.5368C23.4654 13.2347 23.0096 12.2768 22.0982 11.6629C21.2054 11.0491 20.0335 10.7422 18.5826 10.7422Z" fill="#13B8AE"/>
<path d="M54.0402 41.4509C51.4174 41.4509 49.1109 41.023 47.1206 40.1674C45.1489 39.3117 43.4933 38.1771 42.154 36.7634C40.8147 35.3311 39.8103 33.6941 39.1406 31.8527C38.471 29.9926 38.1362 28.0673 38.1362 26.077C38.1362 24.0867 38.4617 22.1987 39.1127 20.413C39.7637 18.6086 40.6753 16.9996 41.8472 15.586C43.019 14.1537 44.4234 12.9631 46.0603 12.0146C47.6972 11.0473 49.5014 10.3961 51.4732 10.0614C51.7709 10.0427 51.9197 9.97769 51.9197 9.86607C51.9197 9.66146 51.8917 9.47545 51.836 9.30803C51.7987 9.12203 51.7802 8.96392 51.7802 8.8337C51.7802 8.62909 51.8173 8.48959 51.8917 8.41517C51.9662 8.34077 52.0499 8.30357 52.1429 8.30357C55.6957 8.30357 58.7184 8.7128 61.211 9.53126C63.7034 10.3311 65.731 11.4286 67.2936 12.8237C68.856 14.2187 69.9907 15.865 70.6976 17.7623C71.4044 19.6596 71.7579 21.6964 71.7579 23.8727C71.7579 26.6443 71.2927 29.1183 70.3627 31.2946C69.4327 33.471 68.1584 35.3126 66.5402 36.8191C64.9404 38.3259 63.0617 39.4699 60.904 40.2511C58.7649 41.051 56.477 41.4509 54.0402 41.4509Z" fill="#8B63C6"/>
<path fill-rule="evenodd" clip-rule="evenodd" d="M44.3181 33.9467C51.5028 40.0397 61.4867 36.9424 64.1374 32.2918C66.788 27.6411 65.5012 17.0529 58.6684 13.108C51.8357 9.16316 42.4121 11.6897 38.6645 18.1808C36.0075 22.7829 36.4145 23.2625 40.9406 25.4045C45.6657 27.6407 42.1757 31.7154 44.3181 33.9467Z" fill="white"/>
<path fill-rule="evenodd" clip-rule="evenodd" d="M45.2804 31.4719C46.376 36.8836 58.9796 37.2797 62.3328 31.4719C65.6859 25.6641 62.9619 17.8138 56.2485 13.9378C49.5351 10.0618 42.0176 12.373 38.6645 18.1808C35.3113 23.9887 45.2804 20.2642 45.2804 31.4719Z" fill="#FF9C40"/>
<path d="M53.8571 52C60.9579 52 66.7143 51.0406 66.7143 49.8571C66.7143 48.6737 60.9579 47.7143 53.8571 47.7143C46.7563 47.7143 41 48.6737 41 49.8571C41 51.0406 46.7563 52 53.8571 52Z" fill="#717675"/>
</svg>
