<svg width="79" height="93" viewBox="0 0 79 93" fill="none" xmlns="http://www.w3.org/2000/svg">
<path d="M44.483 92.0517C57.0587 92.0517 67.2532 90.3526 67.2532 88.2567C67.2532 86.1608 57.0587 84.4617 44.483 84.4617C31.9074 84.4617 21.7128 86.1608 21.7128 88.2567C21.7128 90.3526 31.9074 92.0517 44.483 92.0517Z" fill="#717675"/>
<g opacity="0.9">
<path d="M35.0488 68.3052C30.6965 67.2476 27.043 65.6006 24.0886 63.3646C21.165 61.1358 18.8795 58.5673 17.2326 55.6587C15.5932 52.7189 14.5929 49.5712 14.2312 46.2159C13.8774 42.8294 14.1056 39.4686 14.9159 36.134C15.7262 32.7994 17.0351 29.7675 18.8424 27.0382C20.6574 24.2775 22.8252 21.9493 25.3453 20.0535C27.8731 18.1263 30.6884 16.6979 33.7909 15.7687C36.901 14.8081 40.1603 14.4448 43.5685 14.6791C44.0702 14.7678 44.3437 14.7188 44.3891 14.5318C44.4724 14.189 44.5017 13.8661 44.4774 13.5631C44.4913 13.2364 44.5248 12.964 44.5778 12.7459C44.6611 12.4031 44.7796 12.1843 44.9334 12.0896C45.0872 11.995 45.2412 11.9664 45.3956 12.0039C51.2914 13.4366 56.1409 15.3412 59.944 17.7176C63.7544 20.0628 66.6723 22.7191 68.6973 25.6866C70.7222 28.6539 71.9349 31.8697 72.3355 35.3336C72.736 38.7974 72.4933 42.3525 71.6073 45.9988C70.4789 50.6424 68.6997 54.5998 66.2704 57.871C63.841 61.1425 60.9766 63.7141 57.6778 65.5857C54.4097 67.465 50.8263 68.6241 46.9276 69.063C43.0521 69.5405 39.0927 69.2879 35.0488 68.3052Z" fill="#713AC1"/>
<path fill-rule="evenodd" clip-rule="evenodd" d="M21.9708 51.8122C31.4128 64.9178 49.2418 63.7545 55.5339 57.0315C61.8259 50.3085 64.0013 32.0497 54.2687 22.685C44.536 13.3203 27.8694 13.7533 19.0076 23.1176C12.7247 29.7566 13.2049 30.7243 19.8437 36.1382C26.7745 41.7902 19.3239 47.2098 21.9708 51.8122Z" fill="white"/>
<path fill-rule="evenodd" clip-rule="evenodd" d="M24.5745 48.0537C24.1895 57.5624 44.9433 63.3085 52.8723 54.93C60.8013 46.5515 59.477 32.3003 49.9144 23.0992C40.3518 13.8981 26.9359 14.7389 19.0069 23.1174C11.0779 31.496 29.1375 29.2759 24.5745 48.0537Z" fill="#FF9340"/>
</g>
</svg>
